HIERARCHY
ROOT Hips
{
	OFFSET 0.00000 0.00000 0.00000
	CHANNELS 6 Xposition Yposition Zposition Zrotation Yrotation Xrotation 
	JOINT RightUpLegDummy
	{
		OFFSET 0 0 0
		CHANNELS 3 Zrotation Yrotation Xrotation
		JOINT RightUpLeg
		{
			OFFSET -3.52197 -3.41223 0.04002
			CHANNELS 3 Zrotation Yrotation Xrotation
			JOINT RightLeg
			{
				OFFSET 0.00006 -17.42390 1.60435
				CHANNELS 3 Zrotation Yrotation Xrotation
				JOINT RightFoot
				{
					OFFSET 0.06153 -16.50078 -1.63901
					CHANNELS 3 Zrotation Yrotation Xrotation
					JOINT RightToes
					{
						OFFSET 0.00298 -1.73825 3.34613
						CHANNELS 3 Zrotation Yrotation Xrotation
						End Site
						{
							OFFSET 0.00480 -0.05416 3.85043
						}
					}
				}
			}
		}
	}
	JOINT SpineDummy
	{
		OFFSET 0 0 0
		CHANNELS 3 Zrotation Yrotation Xrotation
		JOINT Spine
		{
			OFFSET 0.00000 4.68130 0.00000
			CHANNELS 3 Zrotation Yrotation Xrotation
			JOINT Spine1
			{
				OFFSET -0.00000 10.10138 0.05002
				CHANNELS 3 Zrotation Yrotation Xrotation
				JOINT HEadDummy
				{
					OFFSET 0 0 0
					CHANNELS 3 Zrotation Yrotation Xrotation
					JOINT Head
					{
						OFFSET -0.00000 3.43865 0.00438
						CHANNELS 3 Zrotation Yrotation Xrotation
						End Site
						{
							OFFSET -0.11417 5.02924 0.98962
						}
					}
				}
				JOINT LeftShoulder1Dummy
				{
					OFFSET 0 0 0
					CHANNELS 3 Zrotation Yrotation Xrotation
					JOINT LeftShoulder1
					{
						OFFSET 3.53937 -0.14262 -0.08662
						CHANNELS 3 Zrotation Yrotation Xrotation
						JOINT LeftArm
						{
							OFFSET 4.04833 -0.00133 0.12681
							CHANNELS 3 Zrotation Yrotation Xrotation
							JOINT LeftForeArm
							{
								OFFSET 10.33880 -0.01036 -0.55515
								CHANNELS 3 Zrotation Yrotation Xrotation
								JOINT LeftHand
								{
									OFFSET 8.69677 0.07543 0.40060
									CHANNELS 3 Zrotation Yrotation Xrotation
									End Site
									{
										OFFSET 5.28377 -0.21905 0.59205
									}
								}
							}
						}
					}
				}
				JOINT RightShoulderDummy
				{
					OFFSET 0 0 0
					CHANNELS 3 Zrotation Yrotation Xrotation
					JOINT RightShoulder
					{
						OFFSET -3.53937 -0.14262 -0.08660
						CHANNELS 3 Zrotation Yrotation Xrotation
						JOINT RightArm
						{
							OFFSET -4.04833 -0.00133 0.12683
							CHANNELS 3 Zrotation Yrotation Xrotation
							JOINT RightForeArm
							{
								OFFSET -10.37987 -0.01039 -0.55511
								CHANNELS 3 Zrotation Yrotation Xrotation
								JOINT RightHand
								{
									OFFSET -8.67398 0.07538 0.40058
									CHANNELS 3 Zrotation Yrotation Xrotation
									End Site
									{
										OFFSET -5.24810 -0.21916 0.59204
									}
								}
							}
						}
					}
				}
			}
		}
	}
	JOINT LeftUpLegDummy
	{
		OFFSET 0 0 0
		CHANNELS 3 Zrotation Yrotation Xrotation
		JOINT LeftUpLeg
		{
			OFFSET 3.52197 -3.41223 0.04002
			CHANNELS 3 Zrotation Yrotation Xrotation
			JOINT LeftLeg
			{
				OFFSET -0.00012 -17.42399 1.60337
				CHANNELS 3 Zrotation Yrotation Xrotation
				JOINT LeftFoot
				{
					OFFSET -0.09972 -16.50070 -1.63802
					CHANNELS 3 Zrotation Yrotation Xrotation
					JOINT LeftToes
					{
						OFFSET -0.01575 -1.73823 3.34611
						CHANNELS 3 Zrotation Yrotation Xrotation
						End Site
						{
							OFFSET 0.03150 -0.01868 3.85031
						}
					}
				}
			}
		}
	}
}
MOTION
Frames: 15
Frame Time: 0.033333
-10.9406 38.9691 -15.9011 -174.9660 -71.7554 170.6750 0.0000 0.0000 0.0000 6.1932 0.0963 -8.9835 -8.6087 -21.3801 19.3756 -4.4542 0.1636 -6.5041 0.0000 -0.0000 0.0000 0.0000 0.0000 0.0000 -1.6126 0.4181 9.7844 3.8924 -0.1790 -3.7196 -0.0000 0.0000 -0.0000 11.2455 -12.9123 -0.6360 -0.0000 0.0000 -0.0000 -33.6249 -2.5384 2.3958 -44.7939 -11.8750 -15.2574 -12.2266 5.3294 40.6438 14.1840 -5.2707 -1.2629 -0.0000 0.0000 -0.0000 34.5305 5.1114 3.4931 39.0076 6.5159 -12.1470 11.3502 6.4380 20.0976 -12.7074 2.5534 -0.8497 0.0000 0.0000 0.0000 8.3272 4.5736 2.3276 13.7021 12.1082 42.7833 2.7407 -0.1048 -5.6020 0.0000 0.0000 -0.0000
-11.6814 38.9450 -16.3987 -177.2210 -67.1579 172.6730 0.0000 0.0000 0.0000 6.5571 0.2332 -7.7262 -7.1598 -17.4169 19.5350 -6.0426 0.1541 -7.8620 0.0000 -0.0000 0.0000 0.0000 0.0000 0.0000 -1.0094 1.2404 10.1319 3.0654 0.7902 -3.7436 -0.0000 0.0000 -0.0000 10.0375 -11.5555 -0.0080 -0.0000 0.0000 -0.0000 -34.0563 -2.5230 2.4160 -44.6961 -12.1529 -14.4714 -12.6645 5.1624 37.3897 14.3311 -5.1046 -1.2575 -0.0000 0.0000 -0.0000 34.4412 5.1026 3.4818 38.4441 7.4102 -9.9547 11.3795 7.7052 18.4463 -12.6289 2.6039 -0.8503 0.0000 0.0000 0.0000 5.7743 3.0979 -0.8844 16.4131 13.5223 45.1986 2.1079 -0.0361 -7.0443 0.0000 0.0000 -0.0000
-12.4393 38.9092 -16.9189 -178.6260 -62.8899 173.8660 0.0000 0.0000 0.0000 6.6975 0.1852 -6.4335 -5.7788 -13.6518 19.9566 -7.0304 0.0720 -9.6114 0.0000 -0.0000 0.0000 0.0000 0.0000 0.0000 -0.6544 1.8491 10.3758 2.3847 1.5145 -3.6293 -0.0000 0.0000 -0.0000 9.2405 -9.7446 0.1039 -0.0000 0.0000 -0.0000 -34.2214 -2.5229 2.4260 -44.4272 -12.2660 -14.0911 -12.8747 3.9140 35.0201 14.3609 -4.8565 -1.2312 -0.0000 0.0000 -0.0000 34.6585 5.1398 3.5159 37.7676 8.6658 -9.1119 11.4229 7.9653 18.0377 -12.5877 2.6231 -0.8519 0.0000 0.0000 0.0000 3.8542 2.0798 -4.3708 18.9576 15.1373 46.5152 2.2828 -0.0115 -8.2354 0.0000 0.0000 -0.0000
-13.2129 38.8829 -17.4604 -179.3470 -59.1727 174.3960 0.0000 0.0000 0.0000 6.7522 0.0865 -4.9171 -4.5628 -10.3565 20.2126 -7.0731 -0.0330 -11.2161 0.0000 -0.0000 0.0000 0.0000 0.0000 0.0000 -0.4439 2.1649 10.6094 1.9463 1.9035 -3.5393 -0.0000 0.0000 -0.0000 8.5432 -7.8443 0.1443 -0.0000 0.0000 -0.0000 -34.1112 -2.5409 2.4265 -44.0991 -12.2267 -13.9772 -12.9233 2.8021 34.0979 14.5424 -4.7921 -1.2399 -0.0000 0.0000 -0.0000 34.7469 5.1616 3.5325 37.4773 9.9920 -9.4536 11.4686 7.5635 18.8974 -12.7125 2.5109 -0.8472 0.0000 0.0000 0.0000 2.7155 1.4162 -7.7024 19.5392 16.0438 45.8548 2.7448 0.0072 -9.3307 0.0000 0.0000 -0.0000
-13.9999 38.8831 -18.0200 -179.8120 -56.0286 174.5120 0.0000 0.0000 0.0000 6.7157 -0.0394 -2.9527 -3.5028 -7.4377 20.0639 -6.9273 -0.1094 -12.3909 0.0000 -0.0000 0.0000 0.0000 0.0000 0.0000 -0.4726 2.3148 10.9544 1.8754 2.0596 -3.3979 -0.0000 0.0000 -0.0000 7.9079 -6.2624 0.2423 -0.0000 0.0000 -0.0000 -34.0393 -2.5687 2.4333 -43.5697 -12.2196 -14.0548 -12.8925 2.6182 34.3459 14.7014 -4.8314 -1.2587 -0.0000 0.0000 -0.0000 34.6576 5.1576 3.5231 37.5776 10.9552 -9.8493 11.4201 7.3605 19.2839 -12.8773 2.3373 -0.8390 0.0000 0.0000 0.0000 2.1530 0.9973 -10.4873 18.0481 16.3020 42.9815 2.3257 0.0268 -9.7513 0.0000 0.0000 -0.0000
-14.8092 38.9115 -18.6021 179.6320 -53.4368 174.6040 0.0000 0.0000 0.0000 6.4560 -0.2091 -0.6356 -2.6485 -4.9533 19.5582 -7.1243 -0.1776 -13.3969 0.0000 -0.0000 0.0000 0.0000 0.0000 0.0000 -0.7705 2.3932 11.2758 1.9854 2.1007 -3.1301 -0.0000 0.0000 -0.0000 7.4441 -5.0966 0.3294 -0.0000 0.0000 -0.0000 -34.0786 -2.5880 2.4434 -42.8380 -12.3924 -14.4065 -12.7632 3.3423 35.4594 14.6303 -4.9244 -1.2634 -0.0000 0.0000 -0.0000 34.6278 5.1565 3.5200 37.8075 11.2856 -9.5975 11.3087 7.7538 18.4405 -12.8842 2.2899 -0.8347 0.0000 0.0000 0.0000 1.7184 0.5715 -12.7067 15.9454 16.7031 38.5289 1.6607 0.0205 -9.0267 0.0000 0.0000 -0.0000
-15.6471 38.9451 -19.2065 179.1210 -51.3866 174.8130 0.0000 0.0000 0.0000 6.0329 -0.3972 1.6868 -2.0139 -3.0793 18.8101 -7.4375 -0.2550 -14.4452 0.0000 -0.0000 0.0000 0.0000 0.0000 0.0000 -1.1048 2.3830 11.3514 2.0645 2.0520 -2.8379 -0.0000 0.0000 -0.0000 7.0295 -4.2048 0.3815 -0.0000 0.0000 -0.0000 -34.1140 -2.6050 2.4524 -42.0941 -12.6324 -15.0374 -12.5255 4.6348 37.0467 14.4650 -5.0910 -1.2681 -0.0000 0.0000 -0.0000 34.6444 5.1570 3.5217 38.1268 11.0178 -8.5987 11.1780 8.5211 17.1295 -12.6928 2.3927 -0.8324 0.0000 0.0000 0.0000 1.2921 0.1241 -14.5541 13.7424 17.3249 33.0352 1.7495 -0.0151 -7.4779 0.0000 0.0000 -0.0000
-16.5131 38.9540 -19.8210 178.9220 -49.7199 174.9970 0.0000 0.0000 0.0000 5.6350 -0.5872 3.8282 -1.4706 -1.6453 17.9646 -7.7637 -0.3307 -15.3758 0.0000 -0.0000 0.0000 0.0000 0.0000 0.0000 -1.2083 2.2990 11.1684 2.0878 1.9513 -2.5857 -0.0000 0.0000 -0.0000 6.5008 -3.4859 0.3670 -0.0000 0.0000 -0.0000 -34.1596 -2.6247 2.4631 -41.4552 -12.6751 -15.6757 -12.2965 5.4246 38.4997 14.3695 -5.1710 -1.2688 -0.0000 0.0000 -0.0000 34.5378 5.1423 3.5063 38.5535 10.4134 -7.2643 11.0618 9.2300 16.3082 -12.4072 2.4927 -0.8230 0.0000 0.0000 0.0000 0.9989 0.1294 -16.0334 10.8833 17.1531 26.6209 1.7923 -0.0557 -5.5466 0.0000 0.0000 -0.0000
-17.3991 38.9516 -20.4320 178.8990 -48.1698 175.1000 0.0000 0.0000 0.0000 5.2576 -0.7232 5.9752 -0.9960 -0.3991 16.9854 -8.3757 -0.3978 -15.9659 0.0000 -0.0000 0.0000 0.0000 0.0000 0.0000 -1.1271 2.2494 10.9213 2.0669 1.9073 -2.3152 -0.0000 0.0000 -0.0000 5.9910 -2.9644 0.2111 -0.0000 0.0000 -0.0000 -34.2750 -2.6243 2.4701 -40.9313 -12.3885 -16.0349 -12.2241 5.3346 39.2612 14.2888 -5.0000 -1.2415 -0.0000 0.0000 -0.0000 34.4356 5.1337 3.4939 38.8334 9.7354 -6.4159 11.0343 9.5225 16.3050 -12.1440 2.5158 -0.8072 0.0000 0.0000 0.0000 0.7138 0.9026 -16.8637 7.5105 15.5842 19.4455 0.7509 -0.0243 -3.9805 0.0000 0.0000 -0.0000
-18.2989 38.9592 -21.0406 178.7770 -46.6243 175.2240 0.0000 0.0000 0.0000 4.7992 -0.6098 8.2417 -0.7640 0.4348 15.8841 -9.0318 -0.4579 -16.3714 0.0000 -0.0000 0.0000 0.0000 0.0000 0.0000 -1.0577 2.2957 10.7265 1.9361 1.9848 -2.0193 -0.0000 0.0000 -0.0000 5.7183 -2.6445 -0.0564 -0.0000 0.0000 -0.0000 -34.3538 -2.5964 2.4638 -40.5814 -11.8704 -16.2253 -12.2531 5.3298 39.4533 14.2294 -4.6840 -1.1995 -0.0000 0.0000 -0.0000 34.5839 5.1619 3.5183 38.7606 9.0724 -6.8180 11.1532 9.1699 17.1237 -11.9688 2.5176 -0.7953 0.0000 0.0000 0.0000 0.4614 1.5279 -16.9069 4.3521 13.3075 12.1258 -0.6671 0.0651 -3.9020 0.0000 0.0000 -0.0000
-19.2353 38.9427 -21.6676 178.6710 -45.1296 175.3170 0.0000 0.0000 0.0000 4.3454 -0.0480 10.3860 -0.7220 0.6120 15.1329 -8.9868 -0.4948 -16.8456 0.0000 -0.0000 0.0000 0.0000 0.0000 0.0000 -0.8921 2.3846 10.4965 1.6139 2.1470 -1.7662 -0.0000 0.0000 -0.0000 5.6171 -2.4015 -0.2542 -0.0000 0.0000 -0.0000 -34.2756 -2.5704 2.4485 -40.4757 -11.2836 -16.6379 -12.1283 5.3194 39.9704 14.2933 -4.4345 -1.1762 -0.0000 0.0000 -0.0000 34.8615 5.2048 3.5603 38.5753 8.3758 -8.5373 11.3471 8.1792 18.5975 -11.8750 2.4892 -0.7862 0.0000 0.0000 0.0000 0.7422 0.5523 -16.5127 1.9840 11.3627 6.1329 -1.3382 0.1035 -4.9700 0.0000 0.0000 -0.0000
-20.2444 38.8600 -22.3333 178.7700 -43.6621 175.2190 0.0000 0.0000 0.0000 3.9448 0.9577 12.1803 -0.4934 0.5494 15.3813 -8.1602 -0.4797 -17.1722 0.0000 -0.0000 0.0000 0.0000 0.0000 0.0000 -0.4650 2.4732 10.1901 1.1607 2.3413 -1.5716 -0.0000 0.0000 -0.0000 5.4765 -2.0946 -0.2354 -0.0000 0.0000 -0.0000 -34.1787 -2.5554 2.4365 -40.5181 -10.6857 -17.4468 -11.7433 5.2979 41.0885 14.3775 -4.2990 -1.1676 -0.0000 0.0000 -0.0000 34.9827 5.2237 3.5787 38.5686 7.6034 -10.8337 11.4427 6.8936 20.1215 -11.8111 2.3596 -0.7696 0.0000 0.0000 0.0000 0.8606 -0.1835 -16.3263 1.0917 8.5925 3.5760 -1.2868 0.1010 -4.9592 0.0000 0.0000 -0.0000
-21.3317 38.7038 -23.0485 178.6950 -42.2200 175.0900 0.0000 0.0000 0.0000 3.1829 1.8919 13.4397 0.1310 0.9983 17.3360 -7.0807 -0.4281 -17.2351 0.0000 -0.0000 0.0000 0.0000 0.0000 0.0000 -0.2734 2.5872 9.8317 0.9045 2.5140 -1.3413 -0.0000 0.0000 -0.0000 5.2967 -1.7506 -0.0087 -0.0000 0.0000 -0.0000 -34.3254 -2.5261 2.4337 -40.5063 -10.0814 -18.5132 -11.2052 5.2728 42.3881 14.2884 -4.1907 -1.1475 -0.0000 0.0000 -0.0000 35.0365 5.2334 3.5875 38.5625 6.7177 -12.9513 11.3557 5.7460 21.0858 -11.8180 2.2132 -0.7563 0.0000 0.0000 0.0000 0.5840 -0.4397 -16.5266 1.2995 6.7911 5.3939 -1.0205 0.0933 -2.5802 0.0000 0.0000 -0.0000
-22.4356 38.5496 -23.7923 177.8740 -41.0996 175.3430 0.0000 0.0000 0.0000 1.4254 1.5581 14.0311 1.0623 2.5114 20.8990 -5.5095 -0.3223 -16.7926 0.0000 -0.0000 0.0000 0.0000 0.0000 0.0000 -1.1312 2.6862 9.4165 1.1907 2.5463 -1.1174 -0.0000 0.0000 -0.0000 5.2330 -1.5517 0.3843 -0.0000 0.0000 -0.0000 -34.6826 -2.4889 2.4404 -40.4221 -9.5617 -19.7354 -10.5724 5.2483 43.6544 14.0925 -4.0176 -1.1114 -0.0000 0.0000 -0.0000 35.2966 5.2707 3.6261 38.3232 5.5978 -14.7346 11.1195 4.9166 21.4134 -12.0087 2.2121 -0.7688 0.0000 0.0000 0.0000 -0.2053 -0.6858 -16.2180 1.7262 7.1222 8.5359 -1.1429 0.1213 1.4205 0.0000 0.0000 -0.0000
-23.5095 38.4452 -24.5445 176.4840 -40.6503 176.0340 0.0000 0.0000 0.0000 -1.1954 -0.0009 13.6278 2.3269 4.1206 25.9241 -2.4071 -0.1334 -14.8628 0.0000 -0.0000 0.0000 0.0000 0.0000 0.0000 -2.8701 2.6227 9.0004 1.8618 2.3388 -1.1375 -0.0000 0.0000 -0.0000 5.2877 -1.6210 0.9721 -0.0000 0.0000 -0.0000 -34.8662 -2.4864 2.4506 -40.5004 -9.2726 -21.1003 -9.7735 5.2190 45.1169 13.9417 -3.7256 -1.0660 -0.0000 0.0000 -0.0000 35.6274 5.3135 3.6735 38.2016 4.1445 -16.2952 10.7718 4.3939 21.1699 -12.2940 2.2493 -0.7912 0.0000 0.0000 0.0000 -1.3867 -0.8396 -15.5378 1.9174 8.1022 11.3495 -1.6227 0.1936 4.1157 0.0000 0.0000 -0.0000
